<svg width="22" height="22" viewBox="0 0 22 22" fill="none" xmlns="http://www.w3.org/2000/svg">
    <circle cx="11" cy="11" r="10" fill="#FFC83D" stroke="black"/>
    <mask id="path-2-inside-1" fill="white">
    <path d="M16.5 13.0528C16.5 14.3929 15.9205 15.6782 14.8891 16.6257C13.8576 17.5733 12.4587 18.1057 11 18.1057C9.54131 18.1057 8.14236 17.5733 7.11091 16.6257C6.07946 15.6782 5.5 14.3929 5.5 13.0528L11 13.0528H16.5Z"/>
    </mask>
    <path d="M16.5 13.0528C16.5 14.3929 15.9205 15.6782 14.8891 16.6257C13.8576 17.5733 12.4587 18.1057 11 18.1057C9.54131 18.1057 8.14236 17.5733 7.11091 16.6257C6.07946 15.6782 5.5 14.3929 5.5 13.0528L11 13.0528H16.5Z" fill="black" stroke="black" stroke-width="2" mask="url(#path-2-inside-1)"/>
    <path d="M5.92307 13.3285H16.0769L15.8594 14.2472H6.14062L5.92307 13.3285Z" fill="white"/>
    <path d="M13.1154 17.5C13.1154 17.303 13.0607 17.108 12.9544 16.926C12.8481 16.744 12.6922 16.5786 12.4958 16.4393C12.2994 16.3001 12.0662 16.1896 11.8095 16.1142C11.5529 16.0388 11.2778 16 11 16C10.7222 16 10.4471 16.0388 10.1905 16.1142C9.93382 16.1896 9.70063 16.3001 9.50419 16.4393C9.30776 16.5786 9.15195 16.744 9.04564 16.926C8.93933 17.108 8.88461 17.303 8.88461 17.5L11 17.5H13.1154Z" fill="#EB5757"/>
    <rect x="5.5" y="7" width="2" height="4" rx="1" fill="black"/>
    <rect x="14.5" y="7" width="2" height="4" rx="1" fill="black"/>
</svg>
